<?xml version="1.0" encoding="UTF-8"?>
<!DOCTYPE svg PUBLIC "-//W3C//DTD SVG 1.1//EN" "http://www.w3.org/Graphics/SVG/1.1/DTD/svg11.dtd">
<!-- Creator: CorelDRAW 2021 (64-Bit) -->
<svg xmlns="http://www.w3.org/2000/svg" xml:space="preserve" width="2.73185in" height="2.01429in" version="1.1" style="shape-rendering:geometricPrecision; text-rendering:geometricPrecision; image-rendering:optimizeQuality; fill-rule:evenodd; clip-rule:evenodd"
viewBox="0 0 216.87 159.91"
 xmlns:xlink="http://www.w3.org/1999/xlink"
 xmlns:xodm="http://www.corel.com/coreldraw/odm/2003">
 <defs>
  <style type="text/css">
   <![CDATA[
    .fil1 {fill:#1B75CE}
    .fil2 {fill:#403B33}
    .fil0 {fill:#646267}
    .fil3 {fill:#707374}
   ]]>
  </style>
 </defs>
 <g id="Layer_x0020_1">
  <metadata id="CorelCorpID_0Corel-Layer"/>
  <g id="_1841414746240">
   <path class="fil0" d="M57.46 10.35c-5.6,0.49 -5.34,-0.65 -13.12,0.92 -9.34,1.88 -16.85,5.64 -23.98,11.61 -2.51,2.11 -4.8,4.57 -6.87,7.1 -1.12,1.37 -2.02,2.61 -3.01,4.11 -6.31,9.49 -8.71,17.74 -10.16,28.86 -0.16,1.19 0.02,2.36 -0.14,3.55 -0.49,3.6 0.16,9.35 0.68,12.91 1.97,13.62 7.24,23.92 15.32,34.25 6.52,8.33 19.65,17.49 29.95,19.89 0.22,-0.81 2.32,-3.33 2.94,-4.18 1.06,-1.44 1.92,-2.65 3.01,-4.11l6.18 -8.32 -4.81 -3.89c-7.45,-6.64 -12.35,-12.88 -16.55,-22.47 -4.33,-9.88 -5.53,-19.32 -4.72,-30.31l2.09 -10.04c0,-1.23 0,-0.51 0.26,-0.79 0.41,-3.98 4.91,-11.98 6.72,-14.64 5.59,-8.25 13.8,-15.33 23.17,-19.01 4.13,-1.62 3.66,-1.87 7.98,-0.25 1.81,0.68 6.06,2.28 7.16,3.33 3.33,1.54 6.73,4.01 9.59,6.29l2.98 2.56c1.13,0.87 1.74,1.56 2.72,2.55 1.34,1.36 1.65,1.26 3.6,1.94l15.64 5.72c6.03,2.39 13.54,4.75 19.74,7.15l4.07 1.47c-1.38,-2.62 -1.43,-3.3 -3.51,-6.77 -8.07,-13.46 -20.53,-23.32 -35.66,-27.62 -2.17,-0.62 -6.41,-1.66 -8.82,-1.74 -2.6,0.05 -5.44,-0.22 -8.17,-0.2 -2.72,0.02 -5.45,0.04 -8.17,0.06 -5.31,0.04 -10.79,0.2 -16.08,0.09z"/>
   <path class="fil1" d="M34.52 49.43c0.01,1.25 0.01,0.5 -0.26,0.79 0,1.41 -0.16,3.72 -0.38,5.16 -1.05,7.09 1.22,18.33 3.18,24.99 1.42,4.83 4.44,11.17 7.16,15.51 3.02,4.82 8.61,11.83 13.12,15.35 1.18,0.92 1.97,1.83 3.28,2.52l8.02 -10.96c1.43,-1.9 2.61,-3.57 4.03,-5.46 1.4,-1.86 2.77,-3.58 4.03,-5.46 -0.22,-0.81 -0.64,-1.23 -1.06,-1.84l-2.28 -3.78c-3.68,-7.27 -5.67,-11.57 -7.06,-20.63 -1.61,-10.52 -0.48,-22.03 3.81,-31.74 1.27,-2.87 2.56,-5.43 4.21,-7.92l5.21 -7.12c-1.09,-1.05 -5.35,-2.65 -7.16,-3.33 -4.32,-1.61 -3.85,-1.37 -7.98,0.25 -9.37,3.68 -17.57,10.76 -23.17,19.01 -1.81,2.66 -6.31,10.66 -6.72,14.64z"/>
   <path class="fil1" d="M57.46 10.35c5.29,0.12 10.77,-0.05 16.08,-0.09 2.72,-0.02 5.45,-0.04 8.17,-0.06 2.73,-0.02 5.57,0.25 8.17,0.2 1.08,-1.45 9.31,-5.22 11.83,-5.85 2.03,-0.51 10.81,3.88 12.61,4.88 11.57,6.47 20.04,15.84 25.92,27.6 0.69,1.39 1.46,3.48 2.11,3.95 1.19,-2.49 10.58,-28.08 10.55,-28.21 -0.51,-0.76 -3.21,-2.62 -4.17,-3.22 -8.16,-5.09 -14.41,-7.53 -24.23,-9 -0.85,-0.13 -2.27,-0.17 -3.36,-0.33 -4.11,-0.61 -23.35,0.15 -29.16,0.15 -7.81,0 -12.87,0.2 -19.81,2.34 -3.03,0.93 -7.6,2.99 -10.2,4.57 -1.03,0.62 -3.92,2.35 -4.53,3.06z"/>
   <path class="fil2" d="M80.4 117.72l-10.55 0 8.16 -12.93c0.57,-0.96 2.17,-3.66 2.91,-4.21l-0.26 8.44c0.01,2.91 -0.26,5.5 -0.26,8.7zm-36.12 21.62l11.87 0 8.83 -13.05c0.38,-0.45 0.18,-0.66 0.92,-0.66l14.24 0 0 13.71 8.96 0 0.26 -50.36c-10.54,0 -7.21,-1.42 -12.77,5.95l-23.14 31.7c-1.39,2.05 -8.32,11.1 -9.18,12.71z"/>
   <path class="fil2" d="M108.88 131.96c-8.66,0 -8.7,-15.56 0,-15.56 8.55,0 8.48,15.56 0,15.56zm-14.77 -8.96c0,5.31 0.53,7.4 3.32,11.45 3.06,4.46 9.77,5.92 14.34,3.57 1.09,-0.56 1.84,-1.82 2.91,-2.1l0 17.14 7.91 0 0 -42.98 -7.91 0 0 2.37c-0.91,-0.24 -0.73,-0.35 -1.39,-0.99 -2.07,-2.01 -4.91,-2.18 -7.58,-2.18 -6.3,0 -11.6,7.27 -11.6,13.71z"/>
   <path class="fil2" d="M165.04 125.1c0,-2.72 0.06,-4.31 1.92,-6.52 4.29,-5.12 11,-0.45 11,4.68 0,2.92 0.05,3.9 -1.95,6.49 -2.15,2.79 -6.5,3.08 -9.05,0.03 -0.81,-0.96 -1.92,-3.03 -1.92,-4.68zm-8.44 -1.05c0,6.83 4.65,15.03 11.86,15.03 6.58,0 5.6,-1.09 8.7,-3.16l0 2.37 8.17 0 0 -28.21 -8.17 0 0 2.37c-1.33,-0.89 -0.44,-0.88 -2.9,-2.11 -8.02,-4.02 -17.67,2.73 -17.67,13.72z"/>
   <path class="fil2" d="M128.13 128c0,6.52 4.56,11.07 11.07,11.07l2.9 0c6.35,0 11.07,-4.5 11.07,-10.81l0 -18.19c-9.9,0 -8.17,-1.49 -8.17,5.8 0,2.29 0,4.57 0,6.86 0,5.1 0.36,9.49 -4.48,9.49 -4.52,0 -4.22,-4.73 -4.22,-9.23l0 -10.29c0.04,-3.32 1.15,-2.63 -8.18,-2.63l0 17.93z"/>
   <path class="fil3" d="M136.3 152.52l1.19 -5.4c0.31,-1.69 -0.17,-1.45 3.29,-1.45 0.71,0 0.73,0.13 1.32,0.26 0,7.96 -2.86,6.59 -5.8,6.59zm-3.43 3.43c8.06,0 10.98,0.76 12.5,-5.96 1.86,-8.23 0.16,-7.49 -10.65,-7.49l-2.13 10.53c-0.2,0.93 -1.15,2.92 0.28,2.92z"/>
   <path class="fil3" d="M176.64 155.95c3.7,0 3.02,0.39 3.84,-3.8 0.33,-1.68 0.31,-3.32 2.22,-3.32 2.46,0 -2.03,7.12 0.26,7.12 2.33,0 2.31,0.22 2.68,-1.54 0.15,-0.75 0.32,-1.42 0.47,-2.17 0.33,-1.62 0.25,-3.41 2.13,-3.41 2.54,0 -1.89,7.12 0.26,7.12 3.2,0 2.34,0.51 3.14,-3.45 0.82,-4.08 2.14,-6.04 -2.61,-6.04 -1.32,0 -1.53,0.75 -2.37,1.32 -0.43,-1.62 -1.22,-1.32 -3.16,-1.32 -1.2,0 -1.38,0.56 -2.11,1.05l0.3 -1.04 -3.2 -0.01c-0.19,2.31 -1.85,7.29 -1.85,9.49z"/>
   <path class="fil3" d="M147.37 155.95l1.32 0c-0.25,2.99 -2.64,-0.24 -2.64,3.95 5.15,0 4.82,-1.46 6.68,-5.45 0.71,-1.51 3.24,-6.8 3.34,-8l-3.16 0c-0.31,1.32 -0.87,2.41 -1.39,3.62 -0.26,0.6 -0.48,1.2 -0.68,1.69l-0.83 1.81c0,-1.23 0,-2.46 0.01,-3.7 0.01,-1.6 -0.27,-2.1 -0.27,-3.42l-3.16 0c0,3.28 0.54,6.48 0.79,9.49z"/>
   <path class="fil3" d="M170.58 153.84c-0.71,0 -0.73,-0.13 -1.32,-0.26 0.18,-2.18 2.9,-1.96 2.9,-0.79 0,0.81 -0.77,1.05 -1.58,1.05zm-3.16 -4.48l3.16 0c0.41,-1.53 1.15,-1.08 2.37,-0.79 -0.03,1.19 -0.26,1.05 -0.26,2.37 -0.56,-0.59 -0.67,-0.7 -1.76,-0.89 -0.6,-0.1 -1.44,-0.09 -2.39,0.16 -2.31,0.59 -4.43,5.74 0.46,5.74 1.16,0 1.88,-0.39 2.64,-0.79l0 0.79 2.9 0c0.53,-1.11 1.58,-6.16 1.58,-7.91 0,-2.07 -4.11,-1.58 -5.8,-1.58 -1.65,0 -2.77,1.32 -2.9,2.9z"/>
   <path class="fil3" d="M155.81 155.95l1.58 0c2.23,0 0.34,-7.12 3.95,-7.12 1.45,0 0.23,3.77 -0.24,5.61 -0.42,1.66 -0.5,1.51 2.08,1.51 1.06,0 1.04,-0.98 1.22,-1.95 0.34,-1.91 2.38,-7.54 -0.43,-7.54 -3.41,0 -2.22,-0.11 -3.95,1.05l0 -1.05 -3.16 0 -1.48 7.5c-0.24,1.09 -0.7,1.99 0.43,1.99z"/>
   <path class="fil3" d="M213.29 152.52c-0.13,1.51 -0.61,1.32 -2.11,1.32 -0.8,0 -0.73,-0.31 -0.79,-1.05l-3.16 0c0,2.69 -0.15,3.16 4.48,3.16 3.71,0 4.75,-1.74 4.75,-4.75 0,-1.59 -3.75,-1.23 -5.27,-1.58l0 -1.05c4.08,0 1.42,0.31 3.21,0.75 0.43,0.1 1.81,0.04 2.33,0.04 0.82,-3.43 -1.71,-2.9 -5.27,-2.9 -1.33,0 -1.93,0.37 -2.59,1.1 -0.57,0.62 -1.07,1.86 -1.02,2.84 0.13,2.68 3.76,1.31 5.46,2.13z"/>
   <path class="fil3" d="M201.16 155.95c3.55,0 4.73,-0.48 5.54,-3.95l-3.16 0c-0.66,1.37 0.33,1.32 -2.64,1.32 0,-3.01 0.18,-4.48 2.37,-4.48 0.88,0 0.77,0.47 0.79,1.32 3.42,0 3.16,0.3 3.16,-1.58 0,-2.54 -2.72,-2.11 -5.01,-2.11 -2.87,0 -3.87,2.07 -4.37,4.59 -0.67,3.38 -0.43,4.9 3.32,4.9z"/>
   <path class="fil3" d="M193.25 155.95c3.61,0 2.12,0.63 4.48,-9.49l-3.16 0c-0.37,1.61 -0.71,3.26 -1.11,4.96 -0.55,2.35 -1.39,4.54 -0.21,4.54z"/>
   <path class="fil3" d="M194.83 144.88c3.11,0 3.44,0.69 3.69,-2.37l-3.16 0c-0.18,0.77 -0.35,1.61 -0.53,2.37z"/>
  </g>
 </g>
</svg>
